<svg xmlns="http://www.w3.org/2000/svg" width="31.94" height="32.806" viewBox="0 0 31.94 32.806">
	<g id="Group_1" data-name="Group 1" transform="translate(-3.338 0)">
		<path id="Path_1" data-name="Path 1" d="M159.851,152.736H148.829a1.094,1.094,0,0,1,0-2.187h11.022a1.094,1.094,0,0,1,0,2.187Z" transform="translate(-125.666 -131.019)" fill="#fff" />
		<path id="Path_2" data-name="Path 2" d="M110.609,137.6a3.744,3.744,0,1,1,3.745-3.744A3.749,3.749,0,0,1,110.609,137.6Zm0-5.3a1.557,1.557,0,1,0,1.558,1.558A1.559,1.559,0,0,0,110.609,132.3Z" transform="translate(-90.097 -113.236)" fill="#fff" />
		<path id="Path_3" data-name="Path 3" d="M17.861,152.736H4.432a1.094,1.094,0,0,1,0-2.187H17.861a1.094,1.094,0,1,1,0,2.187Z" transform="translate(0 -131.019)" fill="#fff" />
		<path id="Path_4" data-name="Path 4" d="M92.473,87.679H71.408a1.094,1.094,0,0,1,0-2.187H92.473a1.094,1.094,0,0,1,0,2.187Z" transform="translate(-58.288 -74.402)" fill="#fff" />
		<path id="Path_5" data-name="Path 5" d="M33.185,72.544A3.745,3.745,0,1,1,36.93,68.8,3.749,3.749,0,0,1,33.185,72.544Zm0-5.3A1.558,1.558,0,1,0,34.743,68.8,1.559,1.559,0,0,0,33.185,67.241Z" transform="translate(-22.716 -56.615)" fill="#fff" />
		<path id="Path_6" data-name="Path 6" d="M7.818,87.679H4.432a1.094,1.094,0,0,1,0-2.187H7.818a1.094,1.094,0,0,1,0,2.187Z" transform="translate(0 -74.402)" fill="#fff" />
		<path id="Path_7" data-name="Path 7" d="M23.915,22.624H4.432a1.094,1.094,0,1,1,0-2.187H23.915a1.094,1.094,0,0,1,0,2.187Z" transform="translate(0 -17.786)" fill="#fff" />
		<path id="Path_8" data-name="Path 8" d="M157.274,7.489a3.745,3.745,0,1,1,3.745-3.745A3.749,3.749,0,0,1,157.274,7.489Zm0-5.3a1.558,1.558,0,1,0,1.558,1.558A1.559,1.559,0,0,0,157.274,2.187Z" transform="translate(-130.709 0)" fill="#fff" />
		<path id="Path_9" data-name="Path 9" d="M200.466,22.624H195.5a1.094,1.094,0,0,1,0-2.187h4.968a1.094,1.094,0,0,1,0,2.187Z" transform="translate(-166.281 -17.786)" fill="#fff" />
		<path id="Path_10" data-name="Path 10" d="M92.473,217.793H71.408a1.094,1.094,0,0,1,0-2.187H92.473a1.094,1.094,0,0,1,0,2.187Z" transform="translate(-58.288 -187.637)" fill="#fff" />
		<path id="Path_11" data-name="Path 11" d="M33.185,202.657a3.744,3.744,0,1,1,3.745-3.744A3.749,3.749,0,0,1,33.185,202.657Zm0-5.3a1.557,1.557,0,1,0,1.558,1.558A1.559,1.559,0,0,0,33.185,197.355Z" transform="translate(-22.716 -169.851)" fill="#fff" />
		<path id="Path_12" data-name="Path 12" d="M7.818,217.793H4.432a1.094,1.094,0,0,1,0-2.187H7.818a1.094,1.094,0,0,1,0,2.187Z" transform="translate(0 -187.637)" fill="#fff" />
	</g>
</svg>
