<svg xmlns="http://www.w3.org/2000/svg" width="21.401" height="21.401" viewBox="0 0 21.401 21.401">
	<g id="Group_7" data-name="Group 7" transform="translate(-0.009)">
		<g id="Group_4" data-name="Group 4" transform="translate(0.009)">
			<g id="Group_3" data-name="Group 3" transform="translate(0)">
				<path id="Path_14" data-name="Path 14" d="M21.07,18.1l-3.758-3.758h0L15.968,13a1.165,1.165,0,0,0-1.646,0l-.165.165-.567-.567a7.691,7.691,0,1,0-.988.988l.567.567-.165.165a1.165,1.165,0,0,0,0,1.646l5.1,5.1a1.163,1.163,0,0,0,1.646,0l1.317-1.317A1.165,1.165,0,0,0,21.07,18.1ZM7.69,13.965a6.284,6.284,0,1,1,6.284-6.284A6.291,6.291,0,0,1,7.69,13.965Zm6.467,1.171.988-.988.685.685-.988.988Zm4.772,4.772-3.1-3.1.988-.988,3.1,3.1Z" transform="translate(-0.009)" fill="#fff" />
			</g>
		</g>
		<g id="Group_6" data-name="Group 6" transform="translate(8.319 1.29)">
			<g id="Group_5" data-name="Group 5">
				<path id="Path_15" data-name="Path 15" d="M167.373,66.835a.322.322,0,0,0,0,.645,1.613,1.613,0,0,1,1.611,1.611.322.322,0,1,0,.645,0A2.259,2.259,0,0,0,167.373,66.835Z" transform="translate(-167.051 -66.835)" fill="#fff" />
			</g>
		</g>
	</g>
</svg>
