<svg xmlns="http://www.w3.org/2000/svg" width="13.545" height="12.993" viewBox="0 0 13.545 12.993">
	<g id="Group_2" data-name="Group 2" transform="translate(-0.001 -4.44)">
		<path id="Path_13" data-name="Path 13" d="M13.2,10.485a1.137,1.137,0,0,0-.63-1.94L9.279,8.067a.018.018,0,0,1-.014-.01L7.793,5.074a1.137,1.137,0,0,0-2.039,0L4.281,8.057a.019.019,0,0,1-.014.01L.975,8.546a1.137,1.137,0,0,0-.63,1.94l2.382,2.322a.018.018,0,0,1,.005.016L2.17,16.1a1.137,1.137,0,0,0,1.65,1.2l2.945-1.548a.018.018,0,0,1,.017,0L9.726,17.3a1.137,1.137,0,0,0,1.65-1.2l-.562-3.279a.018.018,0,0,1,.005-.016Zm-3.49,2.527.562,3.279c0,.009,0,.011-.007.018s-.012.005-.019,0L7.3,14.763a1.137,1.137,0,0,0-1.058,0L3.3,16.311c-.008,0-.01.005-.019,0s-.009-.009-.007-.018l.562-3.279a1.137,1.137,0,0,0-.327-1.007L1.126,9.684c-.006-.006-.008-.008,0-.019s.006-.011.015-.013l3.292-.478a1.137,1.137,0,0,0,.856-.622L6.757,5.569c0-.008.005-.01.016-.01s.013,0,.016.01L8.262,8.552a1.137,1.137,0,0,0,.856.622l3.292.478c.009,0,.011,0,.015.013s0,.013,0,.019l-2.382,2.322A1.137,1.137,0,0,0,9.711,13.013Z" transform="translate(0 0)" fill="#fff" />
	</g>
</svg>
