<svg xmlns="http://www.w3.org/2000/svg" width="24.582" height="26.63" viewBox="0 0 24.582 26.63">
	<g id="g3890" transform="translate(0 1536)">
		<path id="path3892" d="M4.1-1514.491a.985.985,0,0,0-.3-.72.984.984,0,0,0-.72-.3.984.984,0,0,0-.72.3.985.985,0,0,0-.3.72.984.984,0,0,0,.3.72.984.984,0,0,0,.72.3.984.984,0,0,0,.72-.3A.984.984,0,0,0,4.1-1514.491Zm18.436-9.218a1.953,1.953,0,0,0-.624-1.432,1.974,1.974,0,0,0-1.424-.616H14.851a6.528,6.528,0,0,1,.768-2.552,6.539,6.539,0,0,0,.768-2.569,4.178,4.178,0,0,0-.512-2.321,2.33,2.33,0,0,0-2.048-.752,2.653,2.653,0,0,0-.608,1.36q-.192.944-.488,2.009a4.067,4.067,0,0,1-.952,1.752q-.352.368-1.232,1.456-.064.08-.368.48t-.5.656q-.2.256-.552.68a9.106,9.106,0,0,1-.64.7q-.288.28-.616.568a2.7,2.7,0,0,1-.64.432,1.374,1.374,0,0,1-.568.144H6.145v10.242h.512a3.229,3.229,0,0,1,.5.048q.3.048.528.1t.608.176q.376.12.56.184l.568.2q.384.136.464.168a17.687,17.687,0,0,0,5.473,1.168H17.3q3.073,0,3.073-2.673a5.471,5.471,0,0,0-.08-.9,1.784,1.784,0,0,0,.76-.84,2.7,2.7,0,0,0,.28-1.176,2.215,2.215,0,0,0-.288-1.1,2.531,2.531,0,0,0,.848-1.9,2.877,2.877,0,0,0-.16-.888,2.154,2.154,0,0,0-.4-.76q.512-.016.856-.752A3.137,3.137,0,0,0,22.533-1523.709Zm2.048-.016a4.626,4.626,0,0,1-.784,2.609,4.179,4.179,0,0,1,.144,1.1,4.6,4.6,0,0,1-.608,2.3,4.858,4.858,0,0,1,.048.688,4.505,4.505,0,0,1-.96,2.849,4.531,4.531,0,0,1-1.36,3.513,5.1,5.1,0,0,1-3.633,1.288H15.364a12.921,12.921,0,0,1-3.033-.36q-1.5-.36-3.465-1.048a11.837,11.837,0,0,0-2.209-.64H2.048a1.973,1.973,0,0,1-1.448-.6,1.974,1.974,0,0,1-.6-1.448v-10.242a1.973,1.973,0,0,1,.6-1.448,1.974,1.974,0,0,1,1.448-.6H6.433a14.123,14.123,0,0,0,2.193-2.48q.928-1.2,1.712-2.048a2.717,2.717,0,0,0,.568-1.368q.184-.968.488-2.024a3.85,3.85,0,0,1,.992-1.729,2.031,2.031,0,0,1,1.44-.592,5.467,5.467,0,0,1,2.417.52,3.517,3.517,0,0,1,1.632,1.625,6.635,6.635,0,0,1,.56,2.977,7.025,7.025,0,0,1-.768,3.073h2.817a3.937,3.937,0,0,1,2.881,1.216A3.919,3.919,0,0,1,24.582-1523.725Z" fill="#fff" />
	</g>
</svg>
